<?xml version="1.0" standalone="no"?>
<!DOCTYPE svg PUBLIC "-//W3C//DTD SVG 20010904//EN"
 "http://www.w3.org/TR/2001/REC-SVG-20010904/DTD/svg10.dtd">
<svg version="1.0" xmlns="http://www.w3.org/2000/svg"
 width="150.000000pt" height="150.000000pt" viewBox="0 0 150.000000 150.000000"
 preserveAspectRatio="xMidYMid meet">
<metadata>
Created by potrace 1.11, written by Peter Selinger 2001-2013
</metadata>
<g transform="translate(0.000000,150.000000) scale(0.100000,-0.100000)"
fill="#000000" stroke="none">
<path d="M458 1493 c-10 -2 -18 -9 -18 -14 0 -14 16 -11 30 6 7 8 11 14 9 14
-2 -1 -12 -3 -21 -6z"/>
<path d="M547 1483 c3 -7 9 -13 13 -13 4 0 10 6 13 13 3 7 -3 13 -13 13 -10 0
-16 -6 -13 -13z"/>
<path d="M803 1493 c-7 -3 -13 -11 -13 -20 0 -8 6 -13 13 -10 6 2 11 10 10 16
-2 6 2 11 7 11 6 0 10 -7 10 -15 0 -20 17 -19 29 3 8 13 10 9 7 -20 -1 -21 -6
-41 -10 -45 -5 -5 -5 2 -2 14 6 20 4 21 -44 19 -58 -3 -74 -15 -75 -54 0 -15
-6 -27 -12 -28 -26 -3 -28 -5 -13 -14 9 -5 19 -5 27 2 10 8 13 7 13 -3 0 -8
11 -26 25 -41 31 -34 32 -48 3 -40 -23 5 -23 5 2 -21 14 -14 27 -21 30 -16 4
5 14 -8 24 -28 l18 -37 -40 38 c-22 22 -69 58 -103 81 l-64 43 -13 -24 c-7
-13 -17 -24 -22 -24 -6 0 -10 -11 -10 -25 0 -18 16 -37 59 -72 33 -26 58 -53
56 -60 -2 -7 1 -15 7 -19 7 -5 8 -2 3 6 -18 29 40 -16 163 -127 14 -13 28 -23
32 -23 10 0 70 -62 70 -72 0 -4 -4 -8 -10 -8 -5 0 -10 8 -10 18 0 10 -3 13 -8
6 -5 -7 -14 -7 -30 2 -19 9 -20 13 -8 17 9 4 16 2 16 -3 0 -6 5 -10 11 -10 8
0 8 4 0 14 -6 7 -22 11 -36 8 -20 -3 -25 0 -25 17 0 12 -8 24 -17 28 -25 8
-53 34 -48 43 2 4 -8 13 -23 21 -33 17 -118 80 -114 85 6 10 1 24 -9 24 -5 0
-7 -4 -4 -10 3 -5 1 -10 -5 -10 -6 0 -20 16 -31 35 -21 36 -33 43 -44 25 -3
-6 1 -7 12 -4 14 4 14 3 -2 -7 -11 -6 -34 -27 -51 -45 -27 -29 -31 -41 -29
-78 1 -34 -1 -43 -11 -39 -25 9 -15 -14 11 -25 14 -6 25 -18 25 -27 0 -8 8
-15 18 -15 14 0 15 -2 2 -10 -13 -8 -8 -13 10 -12 3 0 14 -14 24 -31 l18 -32
-34 30 c-18 16 -50 45 -70 64 -25 23 -38 30 -38 20 0 -8 57 -64 128 -124 217
-187 261 -228 255 -238 -3 -6 -1 -7 5 -3 19 11 141 -102 137 -125 -2 -11 0
-17 6 -14 5 4 6 11 2 18 -9 14 50 -27 67 -48 10 -12 10 -15 -3 -15 -8 0 -18 7
-21 16 -3 8 -11 12 -17 8 -7 -4 -9 -3 -5 4 3 6 1 14 -5 17 -7 5 -10 0 -7 -11
2 -11 8 -19 13 -18 6 1 15 -6 21 -14 6 -9 18 -13 28 -9 10 4 28 -5 50 -23 27
-24 37 -44 50 -98 8 -37 22 -89 30 -115 13 -39 13 -49 2 -53 -15 -6 -136 53
-136 66 0 4 16 36 35 70 37 65 38 83 5 62 -30 -19 -35 -14 -9 9 23 19 23 20 2
9 -17 -8 -24 -7 -31 6 -8 14 -10 14 -22 -1 -11 -13 -11 -18 0 -28 10 -9 11 -9
6 1 -4 6 -5 12 -2 12 3 0 10 -8 15 -18 7 -14 5 -21 -9 -30 -16 -10 -18 -9 -14
3 8 19 -1 19 -32 -1 -13 -9 -27 -14 -31 -11 -8 9 17 38 28 31 5 -3 6 1 4 8 -3
8 6 25 20 38 19 18 28 21 37 12 7 -7 16 -12 22 -12 5 0 -10 19 -33 42 -30 29
-45 38 -50 29 -4 -7 -13 -11 -18 -9 -6 2 -12 -1 -14 -7 -2 -5 -10 -17 -19 -25
-9 -8 -11 -12 -5 -9 5 4 18 5 28 4 9 -2 24 6 32 18 8 12 15 18 15 13 0 -13
-82 -107 -88 -101 -3 3 5 17 19 32 21 23 22 25 4 18 -58 -22 -61 -19 -24 26
20 24 41 44 47 44 22 0 21 13 -3 35 -18 16 -25 19 -25 9 -1 -8 -21 -34 -47
-59 -27 -26 -37 -33 -25 -16 28 36 28 55 2 31 -24 -21 -46 -9 -29 15 9 13 10
12 5 -3 -7 -23 2 -21 25 5 23 29 24 45 2 27 -15 -11 -15 -10 1 8 22 27 41 20
25 -8 -14 -28 -1 -39 17 -15 20 28 17 37 -24 71 -22 18 -33 24 -30 14 4 -11
-9 -31 -40 -60 -25 -24 -40 -36 -33 -27 7 10 10 18 7 18 -4 0 -2 9 4 21 7 11
17 18 24 16 7 -3 13 0 13 6 0 7 4 19 7 28 5 12 -6 30 -39 60 -26 24 -50 45
-54 47 -5 1 -24 -14 -43 -35 -41 -46 -76 -75 -63 -54 5 10 4 12 -3 7 -7 -4
-12 -2 -12 4 0 7 7 10 14 7 10 -4 13 -1 10 7 -3 8 -1 17 5 21 6 3 11 24 11 45
0 21 5 42 10 45 7 4 8 -8 4 -34 -7 -45 0 -50 34 -22 26 22 28 31 7 31 -8 0
-19 9 -25 20 -14 26 -35 25 -64 -2 -12 -13 -29 -24 -37 -25 -8 -1 -24 -5 -36
-9 -27 -8 -30 8 -6 27 14 12 16 12 9 0 -15 -23 16 -7 32 17 14 21 13 22 -4 16
-18 -7 -18 -7 0 14 35 40 43 27 21 -33 -6 -16 -2 -15 21 8 l29 27 -34 29 -34
29 -20 -26 c-50 -66 -70 -82 -86 -69 -12 10 -13 9 -7 -2 5 -8 3 -17 -5 -23
-12 -7 -11 -8 1 -6 8 2 30 -8 48 -21 32 -23 34 -23 55 -5 18 15 17 14 -3 -10
-14 -16 -19 -26 -12 -22 9 5 15 1 19 -13 3 -12 11 -21 17 -21 7 0 23 -11 36
-25 20 -21 21 -27 9 -41 -13 -16 -11 -17 16 -10 28 7 29 6 10 -8 -24 -17 -53
-2 -35 19 5 6 7 15 3 18 -3 4 -11 0 -18 -9 -10 -14 -13 -14 -26 3 -13 17 -13
17 6 3 19 -14 19 -14 6 3 -7 9 -22 17 -33 17 -10 0 -23 10 -28 22 -5 13 -9 19
-9 15 -1 -5 -8 -1 -17 8 -9 9 -23 14 -31 11 -8 -3 -11 -1 -8 4 4 6 -9 17 -29
25 -19 8 -68 43 -108 78 -114 98 -226 187 -233 187 -4 0 12 -17 36 -37 24 -21
50 -45 59 -53 9 -8 43 -37 75 -65 33 -27 62 -52 65 -55 3 -4 37 -33 76 -66 96
-80 285 -243 304 -262 8 -8 -3 -3 -26 12 l-40 26 -110 -60 c-60 -33 -116 -60
-125 -60 -9 0 -24 10 -35 21 -10 12 -46 42 -79 66 l-60 45 45 -43 c25 -23 64
-60 87 -81 23 -21 44 -47 47 -56 8 -24 82 -70 124 -78 18 -4 36 -13 39 -21 3
-7 15 -19 27 -25 19 -10 20 -10 7 6 -8 9 -11 19 -8 22 7 8 54 -27 62 -45 5
-12 3 -12 -11 0 -13 11 -18 11 -21 2 -3 -7 -17 -13 -31 -14 -31 -1 -22 -5 31
-14 35 -6 36 -7 26 -28 -7 -12 -17 -25 -23 -29 -6 -4 174 -7 400 -7 l411 1 1
33 c1 30 -1 33 -21 29 -12 -3 -46 -7 -75 -10 -43 -4 -52 -2 -46 8 12 18 4 122
-9 130 -16 9 -8 15 33 22 31 6 33 5 18 -7 -14 -11 -18 -29 -18 -75 0 -60 1
-62 25 -60 26 2 34 13 14 20 -6 2 -9 19 -6 38 4 31 5 33 12 12 7 -20 9 -21 20
-6 18 26 49 10 43 -21 -3 -13 -1 -22 3 -19 5 3 9 320 9 704 l0 699 -173 -1
c-103 0 -177 -4 -184 -10 -7 -6 -13 -6 -13 -1 0 5 -9 9 -20 10 -13 1 -18 -2
-14 -10 5 -8 3 -8 -7 1 -21 19 -32 14 -27 -13 3 -14 1 -25 -3 -25 -5 0 -9 11
-9 23 0 14 -6 24 -15 24 -8 0 -15 -4 -15 -9 0 -5 -9 -4 -19 2 -27 14 -29 13
-23 -15 2 -14 0 -25 -6 -25 -5 0 -9 8 -8 18 0 9 -5 16 -11 15 -7 -2 -13 1 -13
7 0 5 -7 7 -15 4 -8 -4 -15 -15 -15 -25 0 -10 -6 -19 -13 -19 -8 0 -13 10 -13
22 1 18 -5 22 -34 24 -19 1 -41 0 -47 -3z m147 -33 c0 -5 -4 -10 -10 -10 -5 0
-10 5 -10 10 0 6 5 10 10 10 6 0 10 -4 10 -10z m80 -4 c0 -3 -4 -8 -10 -11 -5
-3 -10 -1 -10 4 0 6 5 11 10 11 6 0 10 -2 10 -4z m405 -6 c-3 -5 -12 -10 -18
-10 -7 0 -6 4 3 10 19 12 23 12 15 0z m-490 -20 c3 -5 1 -10 -4 -10 -6 0 -11
5 -11 10 0 6 2 10 4 10 3 0 8 -4 11 -10z m-30 -10 c3 -6 -1 -7 -9 -4 -18 7
-21 14 -7 14 6 0 13 -4 16 -10z m79 1 c3 -5 -1 -11 -9 -15 -9 -3 -15 0 -15 9
0 16 16 20 24 6z m46 -6 c0 -12 -19 -12 -23 0 -4 9 -1 12 9 8 7 -3 14 -7 14
-8z m55 -5 c3 0 3 5 0 10 -10 16 1 11 16 -7 10 -11 10 -14 2 -9 -9 5 -13 1
-13 -12 0 -11 -7 -23 -16 -26 -23 -9 -34 -7 -34 4 0 5 6 7 14 4 16 -6 30 11
21 26 -5 8 -11 7 -20 0 -11 -9 -14 -7 -12 8 1 16 5 19 18 11 10 -5 20 -9 24
-9z m382 -2 c-3 -8 -6 -5 -6 6 -1 11 2 17 5 13 3 -3 4 -12 1 -19z m-167 3 c0
-5 -7 -12 -16 -15 -14 -5 -15 -4 -4 9 14 17 20 19 20 6z m5 -255 c0 -13 -4
-28 -8 -32 -4 -5 -5 -1 -2 8 4 9 1 19 -5 23 -9 6 -9 10 1 16 8 5 14 9 14 9 1
0 1 -11 0 -24z m-238 8 c-3 -3 -12 -4 -19 -1 -8 3 -5 6 6 6 11 1 17 -2 13 -5z
m313 -104 c0 -5 -5 -10 -11 -10 -5 0 -7 5 -4 10 3 6 8 10 11 10 2 0 4 -4 4
-10z m40 6 c0 -3 -4 -8 -10 -11 -5 -3 -10 -1 -10 4 0 6 5 11 10 11 6 0 10 -2
10 -4z m-155 -16 c3 -5 1 -10 -4 -10 -6 0 -11 5 -11 10 0 6 2 10 4 10 3 0 8
-4 11 -10z m75 0 c0 -5 -4 -10 -10 -10 -5 0 -10 5 -10 10 0 6 5 10 10 10 6 0
10 -4 10 -10z m-213 -126 c-3 -3 -12 -4 -19 -1 -8 3 -5 6 6 6 11 1 17 -2 13
-5z m241 -9 c-2 -5 -10 -9 -18 -7 -21 4 -43 5 -60 3 -11 -2 -9 -5 5 -11 14 -6
0 -8 -45 -8 -62 1 -63 1 -20 8 l45 7 -45 3 c-25 1 -52 2 -62 1 -9 -1 -19 3
-23 9 -5 7 28 10 109 8 71 -2 115 -7 114 -13z m-71 -41 c-3 -3 -12 -4 -19 -1
-8 3 -5 6 6 6 11 1 17 -2 13 -5z m-277 -19 c4 3 14 -3 21 -13 7 -9 9 -14 5
-10 -5 4 -16 2 -24 -5 -11 -8 -14 -8 -9 0 4 6 3 14 -3 18 -5 3 -10 12 -9 18 0
9 2 8 6 -1 2 -6 8 -10 13 -7z m133 -106 l22 -21 -22 11 c-12 6 -25 16 -28 21
-11 17 5 11 28 -11z m-321 -56 c5 -13 82 -67 97 -70 7 -1 19 -7 25 -13 8 -8 6
-10 -9 -5 -18 6 -17 4 4 -14 13 -12 31 -21 42 -21 10 0 21 -5 24 -10 4 -6 11
-8 16 -5 5 4 9 0 9 -9 0 -20 -42 -14 -67 10 -20 19 -96 84 -143 123 -14 11
-20 20 -13 21 6 0 13 -3 15 -7z m-190 -81 c-9 -24 -24 5 -17 29 8 23 8 23 15
4 4 -11 5 -26 2 -33z m129 -10 c-18 -34 -13 -37 16 -11 22 19 20 15 -8 -20
-20 -25 -42 -47 -50 -50 -9 -3 -8 1 4 13 25 26 21 31 -9 11 -31 -20 -26 -8 20
47 33 39 45 43 27 10z m55 -50 c-18 -16 -18 -16 -6 6 6 13 14 21 18 18 3 -4
-2 -14 -12 -24z m254 -23 c12 -8 10 -9 -7 -4 -31 9 -24 -19 15 -55 26 -23 32
-26 33 -12 0 9 5 4 10 -12 4 -17 7 -31 6 -32 -4 -4 -117 102 -117 110 0 4 4 5
9 1 5 -3 12 -1 16 5 8 13 16 12 35 -1z m-302 -29 c-7 -10 -14 -17 -17 -15 -4
4 18 35 25 35 2 0 -1 -9 -8 -20z m312 -2 c0 -9 4 -8 10 2 8 13 10 12 10 -2 0
-22 -13 -23 -30 -3 -9 10 -9 15 -1 15 6 0 11 -6 11 -12z m-360 -18 c0 -5 -10
-10 -22 -9 -22 0 -22 1 -3 9 11 5 21 9 23 9 1 1 2 -3 2 -9z m90 -76 c0 -2 -18
9 -40 23 -22 15 -40 33 -40 41 0 8 17 -2 40 -24 22 -21 40 -39 40 -40z m-16
-10 c9 -3 13 -10 10 -15 -3 -5 2 -9 10 -9 9 0 16 5 16 12 0 9 3 9 12 0 10 -10
10 -15 -2 -23 -13 -9 -12 -10 2 -6 20 7 71 -30 62 -45 -4 -7 -2 -8 4 -4 7 4
31 -11 55 -34 41 -37 65 -52 53 -31 -3 5 1 11 9 15 17 6 21 -9 5 -19 -6 -4 -8
-11 -5 -16 11 -16 -9 -10 -47 16 -20 14 -40 25 -44 25 -22 0 -137 67 -165 96
-19 20 -26 32 -16 29 9 -4 17 -11 17 -15 0 -4 9 -10 21 -13 18 -5 18 -3 7 11
-7 9 -17 20 -23 24 -12 9 -2 10 19 2z m-91 -261 c-7 -2 -19 -2 -25 0 -7 3 -2
5 12 5 14 0 19 -2 13 -5z m752 -102 c-3 -6 -11 -11 -16 -11 -5 0 -4 6 3 14 14
16 24 13 13 -3z"/>
<path d="M400 1480 c0 -5 7 -10 15 -10 8 0 15 5 15 10 0 6 -7 10 -15 10 -8 0
-15 -4 -15 -10z"/>
<path d="M485 1480 c-3 -5 -1 -10 4 -10 6 0 11 5 11 10 0 6 -2 10 -4 10 -3 0
-8 -4 -11 -10z"/>
<path d="M520 1480 c0 -5 5 -10 11 -10 5 0 7 5 4 10 -3 6 -8 10 -11 10 -2 0
-4 -4 -4 -10z"/>
<path d="M640 1480 c0 -5 5 -10 10 -10 6 0 10 5 10 10 0 6 -4 10 -10 10 -5 0
-10 -4 -10 -10z"/>
<path d="M680 1480 c0 -5 5 -10 11 -10 5 0 7 5 4 10 -3 6 -8 10 -11 10 -2 0
-4 -4 -4 -10z"/>
<path d="M755 1481 c-6 -11 9 -23 19 -14 9 9 7 23 -3 23 -6 0 -12 -4 -16 -9z"/>
<path d="M725 1449 c-11 -16 -1 -19 13 -3 7 8 8 14 3 14 -5 0 -13 -5 -16 -11z"/>
<path d="M485 1440 c-3 -5 -1 -10 4 -10 6 0 11 5 11 10 0 6 -2 10 -4 10 -3 0
-8 -4 -11 -10z"/>
<path d="M520 1441 c0 -6 5 -13 10 -16 6 -3 10 1 10 9 0 9 -4 16 -10 16 -5 0
-10 -4 -10 -9z"/>
<path d="M590 1440 c0 -5 7 -10 16 -10 8 0 12 5 9 10 -3 6 -10 10 -16 10 -5 0
-9 -4 -9 -10z"/>
<path d="M126 1411 c-4 -5 -2 -12 3 -15 5 -4 12 -2 15 3 4 5 2 12 -3 15 -5 4
-12 2 -15 -3z"/>
<path d="M362 1411 c4 -13 18 -16 19 -4 0 4 -5 9 -11 12 -7 2 -11 -2 -8 -8z"/>
<path d="M516 1405 c4 -8 11 -15 16 -15 6 0 5 6 -2 15 -7 8 -14 15 -16 15 -2
0 -1 -7 2 -15z"/>
<path d="M550 1400 c0 -5 5 -10 10 -10 6 0 10 5 10 10 0 6 -4 10 -10 10 -5 0
-10 -4 -10 -10z"/>
<path d="M602 1401 c4 -13 18 -16 19 -4 0 4 -5 9 -11 12 -7 2 -11 -2 -8 -8z"/>
<path d="M640 1394 c0 -8 5 -12 10 -9 6 4 8 11 5 16 -9 14 -15 11 -15 -7z"/>
<path d="M680 1390 c0 -5 4 -10 9 -10 6 0 13 5 16 10 3 6 -1 10 -9 10 -9 0
-16 -4 -16 -10z"/>
<path d="M450 1360 c0 -5 5 -10 11 -10 5 0 7 5 4 10 -3 6 -8 10 -11 10 -2 0
-4 -4 -4 -10z"/>
<path d="M485 1360 c-3 -5 -1 -10 4 -10 6 0 11 5 11 10 0 6 -2 10 -4 10 -3 0
-8 -4 -11 -10z"/>
<path d="M525 1361 c-3 -5 -1 -12 5 -16 5 -3 10 1 10 9 0 18 -6 21 -15 7z"/>
<path d="M600 1360 c0 -5 5 -10 11 -10 5 0 7 5 4 10 -3 6 -8 10 -11 10 -2 0
-4 -4 -4 -10z"/>
<path d="M410 1320 c0 -5 5 -10 11 -10 5 0 7 5 4 10 -3 6 -8 10 -11 10 -2 0
-4 -4 -4 -10z"/>
<path d="M491 1314 c0 -11 3 -14 6 -6 3 7 2 16 -1 19 -3 4 -6 -2 -5 -13z"/>
<path d="M555 1320 c-3 -5 -1 -10 4 -10 6 0 11 5 11 10 0 6 -2 10 -4 10 -3 0
-8 -4 -11 -10z"/>
<path d="M450 1274 c0 -8 5 -12 10 -9 6 4 8 11 5 16 -9 14 -15 11 -15 -7z"/>
<path d="M525 1281 c-3 -5 -1 -12 5 -16 5 -3 10 1 10 9 0 18 -6 21 -15 7z"/>
<path d="M410 1229 c0 -5 5 -7 10 -4 6 3 10 8 10 11 0 2 -4 4 -10 4 -5 0 -10
-5 -10 -11z"/>
<path d="M485 1230 c4 -6 11 -8 16 -5 14 9 11 15 -7 15 -8 0 -12 -5 -9 -10z"/>
<path d="M565 1230 c3 -5 8 -10 11 -10 2 0 4 5 4 10 0 6 -5 10 -11 10 -5 0 -7
-4 -4 -10z"/>
<path d="M530 1189 c0 -5 5 -7 10 -4 6 3 10 8 10 11 0 2 -4 4 -10 4 -5 0 -10
-5 -10 -11z"/>
<path d="M646 1165 c4 -8 11 -15 16 -15 6 0 5 6 -2 15 -7 8 -14 15 -16 15 -2
0 -1 -7 2 -15z"/>
<path d="M130 1161 c0 -6 5 -13 10 -16 6 -3 10 1 10 9 0 9 -4 16 -10 16 -5 0
-10 -4 -10 -9z"/>
<path d="M360 1150 c0 -5 5 -10 10 -10 6 0 10 5 10 10 0 6 -4 10 -10 10 -5 0
-10 -4 -10 -10z"/>
<path d="M490 1149 c0 -5 5 -7 10 -4 6 3 10 8 10 11 0 2 -4 4 -10 4 -5 0 -10
-5 -10 -11z"/>
<path d="M490 1069 c0 -5 5 -7 10 -4 6 3 10 8 10 11 0 2 -4 4 -10 4 -5 0 -10
-5 -10 -11z"/>
<path d="M516 975 c4 -8 11 -15 16 -15 6 0 5 6 -2 15 -7 8 -14 15 -16 15 -2 0
-1 -7 2 -15z"/>
<path d="M900 950 c0 -5 5 -10 11 -10 5 0 7 5 4 10 -3 6 -8 10 -11 10 -2 0 -4
-4 -4 -10z"/>
<path d="M270 935 c-7 -9 -10 -18 -7 -22 8 -7 37 15 37 28 0 14 -16 11 -30 -6z"/>
<path d="M291 916 c-9 -10 -7 -17 5 -27 14 -11 18 -10 30 6 8 10 14 22 14 27
0 13 -37 9 -49 -6z"/>
<path d="M341 881 c-9 -6 -11 -16 -6 -27 5 -13 9 -15 12 -6 3 6 9 10 13 7 5
-3 7 -12 3 -20 -4 -11 -1 -13 11 -9 10 4 16 1 16 -9 0 -8 7 -20 15 -27 9 -7
14 -19 11 -27 -4 -10 0 -9 18 2 28 19 43 57 19 48 -9 -4 -23 2 -32 13 -36 42
-66 63 -80 55z"/>
<path d="M465 770 c-17 -19 -17 -20 6 -39 21 -18 26 -18 39 -5 13 14 13 17 -1
27 -9 7 -14 18 -12 25 7 19 -12 14 -32 -8z"/>
<path d="M423 705 c0 -8 4 -12 9 -9 5 3 6 10 3 15 -9 13 -12 11 -12 -6z"/>
<path d="M145 690 c-3 -5 -1 -10 4 -10 6 0 11 5 11 10 0 6 -2 10 -4 10 -3 0
-8 -4 -11 -10z"/>
<path d="M515 635 c16 -13 31 -22 33 -20 9 8 -24 40 -43 42 -17 1 -15 -2 10
-22z"/>
<path d="M10 349 c0 -5 5 -7 10 -4 6 3 10 8 10 11 0 2 -4 4 -10 4 -5 0 -10 -5
-10 -11z"/>
<path d="M125 320 c-3 -5 -1 -10 4 -10 6 0 11 5 11 10 0 6 -2 10 -4 10 -3 0
-8 -4 -11 -10z"/>
<path d="M10 280 c0 -5 5 -10 10 -10 6 0 10 5 10 10 0 6 -4 10 -10 10 -5 0
-10 -4 -10 -10z"/>
<path d="M160 279 c0 -5 5 -7 10 -4 6 3 10 8 10 11 0 2 -4 4 -10 4 -5 0 -10
-5 -10 -11z"/>
<path d="M286 262 c-3 -6 -1 -14 5 -17 15 -10 25 3 12 16 -7 7 -13 7 -17 1z"/>
<path d="M126 251 c-4 -7 -5 -15 -2 -18 9 -9 19 4 14 18 -4 11 -6 11 -12 0z"/>
<path d="M412 240 c-7 -11 -19 -20 -27 -20 -9 0 -12 -6 -8 -16 5 -15 8 -15 17
-2 6 8 18 13 26 11 12 -4 12 -3 2 5 -11 7 -11 10 2 15 9 4 16 11 16 17 0 16
-14 11 -28 -10z"/>
<path d="M0 125 l0 -125 243 0 c152 0 248 4 257 11 12 8 10 9 -7 4 -20 -5 -23
-2 -24 22 -4 91 -13 125 -32 117 -8 -3 -20 2 -27 11 -7 8 -21 15 -31 15 -11 0
-18 3 -18 8 3 20 -5 19 -52 -9 -28 -16 -54 -27 -57 -24 -4 3 0 10 8 15 8 5 11
12 8 15 -10 10 -28 -4 -28 -22 0 -10 -6 -13 -16 -9 -8 3 -13 2 -10 -3 3 -5 -1
-11 -9 -15 -12 -4 -15 3 -15 34 0 41 -16 62 -31 39 -6 -10 -9 -10 -9 -2 0 7
-10 13 -22 13 -45 0 -58 4 -58 17 0 7 -4 13 -10 13 -5 0 -10 -5 -10 -12 0 -9
-3 -9 -12 0 -32 32 -38 14 -38 -113z"/>
<path d="M85 240 c3 -5 8 -10 11 -10 2 0 4 5 4 10 0 6 -5 10 -11 10 -5 0 -7
-4 -4 -10z"/>
<path d="M417 181 c3 -12 9 -21 14 -21 14 0 11 16 -5 29 -12 10 -13 8 -9 -8z"/>
<path d="M440 191 c0 -5 5 -13 10 -16 6 -3 10 -2 10 4 0 5 -4 13 -10 16 -5 3
-10 2 -10 -4z"/>
<path d="M1462 105 c0 -16 2 -22 5 -12 2 9 2 23 0 30 -3 6 -5 -1 -5 -18z"/>
<path d="M555 60 c3 -5 8 -10 11 -10 2 0 4 5 4 10 0 6 -5 10 -11 10 -5 0 -7
-4 -4 -10z"/>
<path d="M635 40 c3 -5 8 -10 11 -10 2 0 4 5 4 10 0 6 -5 10 -11 10 -5 0 -7
-4 -4 -10z"/>
<path d="M590 10 c0 -5 5 -10 10 -10 6 0 10 5 10 10 0 6 -4 10 -10 10 -5 0
-10 -4 -10 -10z"/>
</g>
</svg>
